<?xml version="1.0" encoding="UTF-8"?>
<svg id="_レイヤー_2" data-name="レイヤー 2" xmlns="http://www.w3.org/2000/svg" viewBox="0 0 679.18 70.25">
  <defs>
    <style>
      .cls-1 {
        fill: #231815;
      }
    </style>
  </defs>
  <g id="_レイヤー_1-2" data-name="レイヤー 1">
    <g>
      <path class="cls-1" d="M19.89,70.25c-4.03,0-7.55-.82-10.54-2.47-2.99-1.65-5.3-3.99-6.92-7.03-1.62-3.04-2.43-6.59-2.43-10.68v-23.65c0-4.17.78-7.77,2.33-10.78,1.55-3.01,3.76-5.33,6.61-6.96,2.85-1.62,6.27-2.43,10.26-2.43,3.62,0,6.73.7,9.35,2.09,2.62,1.39,4.63,3.36,6.02,5.91,1.39,2.55,2.09,5.54,2.09,8.97v29.98h-5.77l.21-3.83h-2.02l1.18-1.6c0,1.81-.68,3.28-2.05,4.42-1.37,1.14-3.16,1.71-5.39,1.71-2.97,0-5.25-.94-6.85-2.82-1.6-1.88-2.4-4.6-2.4-8.17v-8.14c0-3.57.8-6.29,2.4-8.17,1.6-1.88,3.88-2.82,6.85-2.82,2.23,0,4.02.57,5.39,1.7,1.37,1.14,2.05,2.63,2.05,4.49l-.97-1.46h1.88l-.9-4.8v-.49c0-2.37-.43-4.39-1.29-6.09-.86-1.69-2.1-3-3.72-3.93-1.62-.93-3.64-1.39-6.05-1.39-4.03,0-7.18,1.28-9.42,3.83-2.25,2.55-3.37,6.14-3.37,10.78v23.65c0,4.45,1.19,7.93,3.58,10.43,2.39,2.5,5.69,3.76,9.91,3.76h4.87v5.98h-4.87ZM25.11,49.04c1.76,0,3.06-.52,3.9-1.57.83-1.04,1.25-2.72,1.25-5.04v-7.72c0-2.04-.43-3.56-1.29-4.56-.86-1-2.15-1.49-3.86-1.49s-3,.51-3.86,1.53c-.86,1.02-1.29,2.55-1.29,4.59v8.14c0,2.13.43,3.69,1.29,4.66.86.97,2.14,1.46,3.86,1.46Z"/>
      <path class="cls-1" d="M59.89,58.36c-3.15,0-5.89-.6-8.21-1.81-2.32-1.21-4.1-2.92-5.36-5.15s-1.88-4.84-1.88-7.86v-9.88c0-3.06.63-5.69,1.88-7.89,1.25-2.2,3.04-3.91,5.36-5.11,2.32-1.21,5.05-1.81,8.21-1.81s5.89.6,8.21,1.81c2.32,1.21,4.1,2.91,5.36,5.11,1.25,2.2,1.88,4.83,1.88,7.89v9.88c0,3.01-.63,5.63-1.88,7.86s-3.04,3.94-5.36,5.15c-2.32,1.21-5.05,1.81-8.21,1.81ZM59.89,51.75c2.55,0,4.52-.71,5.91-2.12,1.39-1.41,2.09-3.44,2.09-6.09v-9.88c0-2.69-.7-4.73-2.09-6.12-1.39-1.39-3.36-2.09-5.91-2.09s-4.46.7-5.88,2.09c-1.42,1.39-2.12,3.43-2.12,6.12v9.88c0,2.64.71,4.67,2.12,6.09,1.41,1.42,3.37,2.12,5.88,2.12Z"/>
      <path class="cls-1" d="M96.82,58.36c-2.74,0-5.14-.44-7.2-1.32-2.06-.88-3.69-2.1-4.87-3.65-1.18-1.55-1.87-3.4-2.05-5.53h7.51c.18,1.25.86,2.26,2.02,3.03,1.16.76,2.69,1.15,4.59,1.15h2.99c2.27,0,3.99-.46,5.15-1.39,1.16-.93,1.74-2.16,1.74-3.69s-.52-2.65-1.56-3.51c-1.04-.86-2.59-1.43-4.62-1.7l-4.94-.77c-4.08-.65-7.08-1.82-9.01-3.51-1.92-1.69-2.89-4.21-2.89-7.55,0-3.52,1.15-6.25,3.44-8.17,2.3-1.92,5.69-2.89,10.19-2.89h2.64c3.99,0,7.17.92,9.56,2.75,2.39,1.83,3.74,4.28,4.07,7.34h-7.51c-.19-1.11-.8-2.02-1.84-2.71-1.04-.7-2.47-1.04-4.28-1.04h-2.64c-2.18,0-3.77.41-4.76,1.22-1,.81-1.5,2.01-1.5,3.58,0,1.39.44,2.44,1.32,3.13.88.7,2.25,1.18,4.1,1.46l5.08.83c4.31.6,7.48,1.8,9.49,3.58s3.03,4.37,3.03,7.76c0,3.66-1.19,6.51-3.58,8.55-2.39,2.04-5.95,3.06-10.68,3.06h-2.99Z"/>
      <path class="cls-1" d="M132.57,58.42c-3.99,0-7.13-1.04-9.42-3.13-2.3-2.09-3.44-4.89-3.44-8.42s1.22-6.46,3.65-8.52c2.43-2.06,5.78-3.09,10.05-3.09h10.64v-3.55c0-2.09-.65-3.71-1.95-4.87-1.3-1.16-3.13-1.74-5.49-1.74-2.09,0-3.83.45-5.22,1.36-1.39.9-2.2,2.1-2.43,3.58h-7.37c.42-3.43,2-6.17,4.76-8.21,2.76-2.04,6.25-3.06,10.47-3.06,4.54,0,8.14,1.15,10.78,3.44,2.64,2.29,3.96,5.41,3.96,9.35v26.15h-7.3v-7.02h-1.25l1.25-1.39c0,2.78-1.07,5-3.2,6.64-2.13,1.65-4.96,2.47-8.49,2.47ZM134.79,52.65c2.69,0,4.9-.68,6.64-2.05,1.74-1.37,2.61-3.12,2.61-5.25v-5.01h-10.5c-1.95,0-3.49.53-4.62,1.6-1.14,1.07-1.7,2.53-1.7,4.38,0,1.95.67,3.49,2.02,4.62,1.34,1.14,3.2,1.7,5.56,1.7Z"/>
      <path class="cls-1" d="M156.77,57.73l13.42-19.75-12.59-18.5h8.62l6.75,10.57c.32.56.65,1.15.97,1.77.32.63.58,1.15.77,1.56.14-.42.37-.94.7-1.56.32-.63.65-1.22.97-1.77l6.75-10.57h8.62l-12.59,18.57,13.35,19.68h-8.62l-7.44-11.48c-.32-.56-.65-1.18-.97-1.88-.33-.7-.58-1.25-.77-1.67-.19.42-.45.97-.8,1.67s-.71,1.32-1.08,1.88l-7.51,11.48h-8.56Z"/>
      <path class="cls-1" d="M204,70.25l5.49-14.74-14.26-36.03h8.28l8,21.56c.32.93.65,2.04.97,3.34.32,1.3.6,2.37.83,3.2.19-.83.44-1.9.77-3.2.32-1.3.65-2.41.97-3.34l7.51-21.56h8l-18.64,50.77h-7.93Z"/>
      <path class="cls-1" d="M236.13,57.73v-7.09l20.66-24.48h-20.03v-6.68h28.66v7.09l-20.94,24.48h21.7v6.68h-30.05Z"/>
      <path class="cls-1" d="M269.79,65.38L294.28,0h7.79l-24.48,65.38h-7.79Z"/>
      <path class="cls-1" d="M317.51,58.42c-3.15,0-5.92-.59-8.31-1.77-2.39-1.18-4.22-2.9-5.49-5.15-1.28-2.25-1.91-4.88-1.91-7.89v-10.02c0-3.06.64-5.7,1.91-7.93,1.27-2.23,3.11-3.93,5.49-5.11,2.39-1.18,5.16-1.77,8.31-1.77,4.59,0,8.28,1.21,11.06,3.62s4.24,5.7,4.38,9.88h-7.51c-.14-2.18-.9-3.87-2.3-5.08-1.39-1.21-3.27-1.81-5.63-1.81-2.55,0-4.57.71-6.05,2.12-1.48,1.42-2.23,3.42-2.23,6.02v10.08c0,2.6.74,4.62,2.23,6.05,1.48,1.44,3.5,2.16,6.05,2.16,2.37,0,4.24-.6,5.63-1.81,1.39-1.21,2.16-2.9,2.3-5.08h7.51c-.14,4.17-1.6,7.47-4.38,9.88-2.78,2.41-6.47,3.62-11.06,3.62Z"/>
      <path class="cls-1" d="M351.66,58.42c-3.99,0-7.13-1.04-9.42-3.13-2.3-2.09-3.44-4.89-3.44-8.42s1.22-6.46,3.65-8.52c2.43-2.06,5.78-3.09,10.05-3.09h10.64v-3.55c0-2.09-.65-3.71-1.95-4.87-1.3-1.16-3.13-1.74-5.5-1.74-2.09,0-3.82.45-5.21,1.36-1.39.9-2.2,2.1-2.44,3.58h-7.37c.42-3.43,2-6.17,4.76-8.21,2.76-2.04,6.25-3.06,10.47-3.06,4.54,0,8.14,1.15,10.78,3.44,2.64,2.29,3.96,5.41,3.96,9.35v26.15h-7.3v-7.02h-1.25l1.25-1.39c0,2.78-1.07,5-3.2,6.64-2.13,1.65-4.96,2.47-8.49,2.47ZM353.88,52.65c2.69,0,4.9-.68,6.64-2.05,1.74-1.37,2.61-3.12,2.61-5.25v-5.01h-10.5c-1.95,0-3.49.53-4.63,1.6-1.14,1.07-1.7,2.53-1.7,4.38,0,1.95.67,3.49,2.02,4.62,1.34,1.14,3.2,1.7,5.56,1.7Z"/>
      <path class="cls-1" d="M379.96,57.73V19.48h7.23v7.3h1.81l-2.3,4.52c0-4.13.9-7.24,2.71-9.36,1.81-2.11,4.5-3.16,8.07-3.16,4.08,0,7.31,1.26,9.7,3.79,2.39,2.53,3.58,5.99,3.58,10.4v2.57h-7.72v-1.95c0-2.74-.68-4.83-2.05-6.29-1.37-1.46-3.28-2.19-5.74-2.19s-4.37.74-5.74,2.23c-1.37,1.48-2.05,3.57-2.05,6.26v24.13h-7.51Z"/>
      <path class="cls-1" d="M434.7,58.42c-3.15,0-5.66-.87-7.51-2.61s-2.78-4.12-2.78-7.13l1.6,1.74h-1.6v7.3h-7.44V6.96h7.51v10.92l-.21,8.9h1.74l-1.6,1.74c0-3.01.94-5.39,2.82-7.13,1.88-1.74,4.37-2.61,7.48-2.61,3.85,0,6.93,1.3,9.25,3.89,2.32,2.6,3.48,6.12,3.48,10.57v10.78c0,4.41-1.16,7.91-3.48,10.5-2.32,2.6-5.4,3.89-9.25,3.89ZM432.13,51.89c2.46,0,4.38-.71,5.77-2.12,1.39-1.41,2.09-3.47,2.09-6.16v-10.02c0-2.69-.7-4.74-2.09-6.16-1.39-1.41-3.32-2.12-5.77-2.12s-4.23.73-5.6,2.19c-1.37,1.46-2.05,3.49-2.05,6.09v10.02c0,2.6.68,4.62,2.05,6.09,1.37,1.46,3.23,2.19,5.6,2.19Z"/>
      <path class="cls-1" d="M470.24,58.36c-3.15,0-5.89-.6-8.21-1.81-2.32-1.21-4.1-2.92-5.36-5.15s-1.88-4.84-1.88-7.86v-9.88c0-3.06.63-5.69,1.88-7.89,1.25-2.2,3.04-3.91,5.36-5.11,2.32-1.21,5.05-1.81,8.21-1.81s5.89.6,8.21,1.81c2.32,1.21,4.1,2.91,5.36,5.11,1.25,2.2,1.88,4.83,1.88,7.89v9.88c0,3.01-.63,5.63-1.88,7.86s-3.04,3.94-5.36,5.15c-2.32,1.21-5.05,1.81-8.21,1.81ZM470.24,51.75c2.55,0,4.52-.71,5.91-2.12,1.39-1.41,2.09-3.44,2.09-6.09v-9.88c0-2.69-.7-4.73-2.09-6.12-1.39-1.39-3.36-2.09-5.91-2.09s-4.46.7-5.88,2.09-2.12,3.43-2.12,6.12v9.88c0,2.64.71,4.67,2.12,6.09,1.41,1.42,3.37,2.12,5.88,2.12Z"/>
      <path class="cls-1" d="M493.47,57.73V19.48h7.44v7.3h1.81l-1.81,1.74c0-3.06.9-5.45,2.71-7.16,1.81-1.71,4.31-2.57,7.51-2.57,3.8,0,6.84,1.22,9.11,3.65,2.27,2.43,3.41,5.72,3.41,9.84v25.46h-7.51v-24.62c0-2.5-.67-4.43-2.02-5.77-1.35-1.34-3.18-2.02-5.5-2.02s-4.23.71-5.6,2.12c-1.37,1.42-2.05,3.47-2.05,6.16v24.13h-7.51Z"/>
      <path class="cls-1" d="M547.03,58.42c-3.15,0-5.92-.59-8.31-1.77-2.39-1.18-4.22-2.9-5.5-5.15-1.28-2.25-1.91-4.88-1.91-7.89v-10.02c0-3.06.64-5.7,1.91-7.93,1.27-2.23,3.11-3.93,5.5-5.11,2.39-1.18,5.16-1.77,8.31-1.77,4.59,0,8.28,1.21,11.06,3.62s4.24,5.7,4.38,9.88h-7.51c-.14-2.18-.9-3.87-2.29-5.08-1.39-1.21-3.27-1.81-5.63-1.81-2.55,0-4.57.71-6.05,2.12-1.48,1.42-2.23,3.42-2.23,6.02v10.08c0,2.6.74,4.62,2.23,6.05,1.48,1.44,3.5,2.16,6.05,2.16,2.36,0,4.24-.6,5.63-1.81,1.39-1.21,2.16-2.9,2.29-5.08h7.51c-.14,4.17-1.6,7.47-4.38,9.88-2.78,2.41-6.47,3.62-11.06,3.62Z"/>
      <path class="cls-1" d="M585.01,58.36c-3.15,0-5.89-.6-8.21-1.81-2.32-1.21-4.1-2.92-5.36-5.15s-1.88-4.84-1.88-7.86v-9.88c0-3.06.63-5.69,1.88-7.89,1.25-2.2,3.04-3.91,5.36-5.11,2.32-1.21,5.05-1.81,8.21-1.81s5.89.6,8.21,1.81c2.32,1.21,4.1,2.91,5.36,5.11,1.25,2.2,1.88,4.83,1.88,7.89v9.88c0,3.01-.63,5.63-1.88,7.86s-3.04,3.94-5.36,5.15c-2.32,1.21-5.05,1.81-8.21,1.81ZM585.01,51.75c2.55,0,4.52-.71,5.91-2.12,1.39-1.41,2.09-3.44,2.09-6.09v-9.88c0-2.69-.7-4.73-2.09-6.12-1.39-1.39-3.36-2.09-5.91-2.09s-4.46.7-5.88,2.09-2.12,3.43-2.12,6.12v9.88c0,2.64.71,4.67,2.12,6.09,1.41,1.42,3.37,2.12,5.88,2.12Z"/>
      <path class="cls-1" d="M608.24,70.25V19.48h7.44v7.3h1.6l-1.6,1.74c0-3.01.94-5.39,2.82-7.13,1.88-1.74,4.39-2.61,7.55-2.61,3.85,0,6.92,1.29,9.22,3.86,2.29,2.57,3.44,6.09,3.44,10.54v10.78c0,2.97-.52,5.53-1.56,7.69-1.04,2.16-2.5,3.83-4.38,5.01-1.88,1.18-4.12,1.77-6.71,1.77-3.11,0-5.61-.87-7.51-2.61-1.9-1.74-2.85-4.12-2.85-7.13l1.6,1.74h-1.74l.21,8.9v10.92h-7.51ZM623.47,51.89c2.46,0,4.37-.71,5.74-2.12,1.37-1.41,2.05-3.47,2.05-6.16v-10.02c0-2.69-.68-4.74-2.05-6.16-1.37-1.41-3.28-2.12-5.74-2.12s-4.24.73-5.63,2.19c-1.39,1.46-2.09,3.49-2.09,6.09v10.02c0,2.6.7,4.62,2.09,6.09,1.39,1.46,3.27,2.19,5.63,2.19Z"/>
      <path class="cls-1" d="M652.61,70.25l5.5-14.74-14.26-36.03h8.28l8,21.56c.32.93.65,2.04.97,3.34.32,1.3.6,2.37.83,3.2.18-.83.44-1.9.77-3.2.32-1.3.65-2.41.97-3.34l7.51-21.56h8l-18.64,50.77h-7.93Z"/>
    </g>
  </g>
</svg>